
<svg xmlns="http://www.w3.org/2000/svg" viewBox="0 0 720 1000"><path d="M344.5 999.9a401.3 401.3 0 0 1-234.4-87 394.8 394.8 0 0 1-30-27.2 312.2 312.2 0 0 1-37.9-41.3c-19.2-25-32.1-72-37.5-136.8-2.5-29.8-2.3-.2-2.4-370L2.2.2 57 .2l54.9.2 6 1c21.8 4.1 39.2 13.2 54.2 28.3a80 80 0 0 1 21.4 35.8c2.3 8.4 2.5 10.5 2.7 31.3l.3 19.3-.2 120.4v78c0 49 0 78.1.3 78.1.2 0 2-2.3 4-5 20.4-28.7 49.2-53 83.8-70.9 31-15.9 66.2-24.4 110.2-26.6 89-4.4 163.4 23 221.8 81.5 50.4 50.5 82.4 114.9 95 191.6 2.7 15.5 4.4 30.9 5.8 50.4.8 11.5.7 46.5-.2 60.7-3 47.6-10.6 86.4-24 123.3-3.4 9.3-5.1 13-10.5 22.7-52.4 95.6-154 161.3-273.3 176.7a319.2 319.2 0 0 1-45 2.9h-19.8zm30.8-155c24.1-2.5 41.2-7.3 59.3-16.4a134 134 0 0 0 51.2-46c20.3-30 31.7-69.2 34.8-119.9.6-10.4.6-38.1 0-47-2.7-38.7-10.9-69.7-25.3-95.5-8-14.4-21.5-31.5-33-41.7a140 140 0 0 0-83.4-35.5c-7.8-.7-29.4-.6-38.3.3-39.1 3.9-69.6 17.3-93.4 41-22.7 22.8-39.2 58-46.2 98.8a298.3 298.3 0 0 0-4.4 55.9c0 41.7 4.6 74.8 15 107.2a142 142 0 0 0 49.6 70.9c22 16.8 48.4 26 82 28.5 6.5.5 25.1.2 32.1-.6z" fill="#3b3d42"/><path d="M189.5 920.7c-31.6-2-57.6-8.6-82.5-20.8-9.9-4.8-17-9-24.2-14.2l-5.8-4c-.2 0 0 .6.6 1.2 1.9 2-8.8-8.3-14.6-14-3-3.2-7.2-7.8-9.1-10.3-2-2.4-4.7-5.8-6.2-7.4l-5.5-6.8c-19.2-25-32.1-72-37.5-136.8-2.5-29.8-2.3-.2-2.4-370L2.2.2 57 .2l54.9.2 6 1c21.8 4.1 39.2 13.2 54.2 28.3a80 80 0 0 1 21.4 35.8c2.3 8.4 2.5 10.5 2.7 31.3l.3 19.3 66.7.2h66.8V137c0 16-.1 21.6-.6 25.5a74.8 74.8 0 0 1-23.9 46.8c-9 8.5-20.8 14.4-39 19.6-16.9 4.8-33.2 7-56 7.3l-14.2.3v78l.3 78.1v230.2c-1.1 14.5 0 40.7 1.8 58.1 2.9 29 8.6 54.7 17 75.7 13.3 34 39.4 61.5 72.2 76a181.7 181.7 0 0 0 101.5 10.6 271 271 0 0 1-18.3 15.9 275 275 0 0 1-146.3 60.8c-6 .6-29.6 1.1-35.1.8z" fill="#0ba2c7"/></svg>